G04 #@! TF.GenerationSoftware,KiCad,Pcbnew,8.0.6*
G04 #@! TF.CreationDate,2025-03-14T18:00:41+01:00*
G04 #@! TF.ProjectId,TENG_PCB,54454e47-5f50-4434-922e-6b696361645f,rev?*
G04 #@! TF.SameCoordinates,Original*
G04 #@! TF.FileFunction,Copper,L1,Top*
G04 #@! TF.FilePolarity,Positive*
%FSLAX46Y46*%
G04 Gerber Fmt 4.6, Leading zero omitted, Abs format (unit mm)*
G04 Created by KiCad (PCBNEW 8.0.6) date 2025-03-14 18:00:41*
%MOMM*%
%LPD*%
G01*
G04 APERTURE LIST*
G04 Aperture macros list*
%AMRoundRect*
0 Rectangle with rounded corners*
0 $1 Rounding radius*
0 $2 $3 $4 $5 $6 $7 $8 $9 X,Y pos of 4 corners*
0 Add a 4 corners polygon primitive as box body*
4,1,4,$2,$3,$4,$5,$6,$7,$8,$9,$2,$3,0*
0 Add four circle primitives for the rounded corners*
1,1,$1+$1,$2,$3*
1,1,$1+$1,$4,$5*
1,1,$1+$1,$6,$7*
1,1,$1+$1,$8,$9*
0 Add four rect primitives between the rounded corners*
20,1,$1+$1,$2,$3,$4,$5,0*
20,1,$1+$1,$4,$5,$6,$7,0*
20,1,$1+$1,$6,$7,$8,$9,0*
20,1,$1+$1,$8,$9,$2,$3,0*%
G04 Aperture macros list end*
G04 #@! TA.AperFunction,SMDPad,CuDef*
%ADD10RoundRect,0.250000X-0.450000X0.262500X-0.450000X-0.262500X0.450000X-0.262500X0.450000X0.262500X0*%
G04 #@! TD*
G04 #@! TA.AperFunction,SMDPad,CuDef*
%ADD11RoundRect,0.150000X0.150000X-0.587500X0.150000X0.587500X-0.150000X0.587500X-0.150000X-0.587500X0*%
G04 #@! TD*
G04 #@! TA.AperFunction,SMDPad,CuDef*
%ADD12RoundRect,0.250000X0.262500X0.450000X-0.262500X0.450000X-0.262500X-0.450000X0.262500X-0.450000X0*%
G04 #@! TD*
G04 #@! TA.AperFunction,SMDPad,CuDef*
%ADD13RoundRect,0.250000X-0.262500X-0.450000X0.262500X-0.450000X0.262500X0.450000X-0.262500X0.450000X0*%
G04 #@! TD*
G04 #@! TA.AperFunction,SMDPad,CuDef*
%ADD14RoundRect,0.150000X0.587500X0.150000X-0.587500X0.150000X-0.587500X-0.150000X0.587500X-0.150000X0*%
G04 #@! TD*
G04 #@! TA.AperFunction,ComponentPad*
%ADD15R,1.950000X1.950000*%
G04 #@! TD*
G04 #@! TA.AperFunction,ComponentPad*
%ADD16C,1.950000*%
G04 #@! TD*
G04 #@! TA.AperFunction,Conductor*
%ADD17C,0.200000*%
G04 #@! TD*
G04 APERTURE END LIST*
D10*
X137740000Y-84147500D03*
X137740000Y-85972500D03*
D11*
X145480000Y-83385000D03*
X147380000Y-83385000D03*
X146430000Y-81510000D03*
D12*
X148650000Y-76170000D03*
X146825000Y-76170000D03*
D10*
X137000000Y-69837500D03*
X137000000Y-71662500D03*
D13*
X139727500Y-73050000D03*
X141552500Y-73050000D03*
D14*
X142250000Y-80520000D03*
X142250000Y-78620000D03*
X140375000Y-79570000D03*
D15*
X129830000Y-88230000D03*
D16*
X129830000Y-83150000D03*
D15*
X155900000Y-76850000D03*
D16*
X155900000Y-81930000D03*
D15*
X129830000Y-69840000D03*
D16*
X129830000Y-74920000D03*
D10*
X136980000Y-74307500D03*
X136980000Y-76132500D03*
D17*
X129830000Y-69840000D02*
X131107000Y-69840000D01*
X131107000Y-69840000D02*
X131109000Y-69837500D01*
X131109000Y-69837500D02*
X137000000Y-69837500D01*
X136980000Y-76132500D02*
X138385000Y-76132500D01*
X136980000Y-76132500D02*
X131042000Y-76132500D01*
X141188000Y-80169400D02*
X141188000Y-82141200D01*
X141475000Y-79222300D02*
X141475000Y-79882400D01*
X147380000Y-83385000D02*
X146868000Y-83385000D01*
X141188000Y-82141200D02*
X141380000Y-82332800D01*
X131042000Y-76132500D02*
X129830000Y-74920000D01*
X146868000Y-83385000D02*
X145815000Y-82332800D01*
X141475000Y-79882400D02*
X141188000Y-80169400D01*
X141380000Y-82332800D02*
X137740000Y-85972500D01*
X138385000Y-76132500D02*
X141475000Y-79222300D01*
X141475000Y-79222300D02*
X143773000Y-79222300D01*
X143773000Y-79222300D02*
X146825000Y-76170000D01*
X145815000Y-82332800D02*
X141380000Y-82332800D01*
X136742000Y-83150000D02*
X136769000Y-83176200D01*
X129780000Y-83150000D02*
X136742000Y-83150000D01*
X140375000Y-79570000D02*
X136769000Y-83176200D01*
X136769000Y-83176200D02*
X137740000Y-84147500D01*
X140635000Y-88230000D02*
X145480000Y-83385000D01*
X129780000Y-88230000D02*
X140635000Y-88230000D01*
X145800000Y-80520000D02*
X147668000Y-78652500D01*
X147668000Y-75511000D02*
X145206000Y-73050000D01*
X146430000Y-81150000D02*
X146430000Y-81510000D01*
X141552500Y-73050000D02*
X141552000Y-73050000D01*
X146680000Y-81760000D02*
X155730000Y-81760000D01*
X155730000Y-81760000D02*
X155900000Y-81930000D01*
X145206000Y-73050000D02*
X141552500Y-73050000D01*
X147668000Y-78652500D02*
X147668000Y-75511000D01*
X146430000Y-81510000D02*
X146680000Y-81760000D01*
X142250000Y-80520000D02*
X145800000Y-80520000D01*
X145800000Y-80520000D02*
X146430000Y-81150000D01*
X142250000Y-77457600D02*
X142250000Y-78620000D01*
X137000000Y-71662500D02*
X138340000Y-71662500D01*
X139414000Y-73363800D02*
X139100000Y-73677600D01*
X139728000Y-73050000D02*
X139414000Y-73363800D01*
X139727500Y-73050300D02*
X139727500Y-73050000D01*
X139414000Y-73363800D02*
X139727500Y-73050300D01*
X138340000Y-71662500D02*
X139728000Y-73050000D01*
X139100000Y-73677600D02*
X139100000Y-74307500D01*
X136980000Y-74307500D02*
X139100000Y-74307500D01*
X139100000Y-74307500D02*
X142250000Y-77457600D01*
X155900000Y-76070000D02*
X155900000Y-76850000D01*
X155900000Y-76850000D02*
X149330000Y-76850000D01*
X149330000Y-76850000D02*
X148650000Y-76170000D01*
M02*
