G04 #@! TF.GenerationSoftware,KiCad,Pcbnew,8.0.6*
G04 #@! TF.CreationDate,2025-03-14T18:00:41+01:00*
G04 #@! TF.ProjectId,TENG_PCB,54454e47-5f50-4434-922e-6b696361645f,rev?*
G04 #@! TF.SameCoordinates,Original*
G04 #@! TF.FileFunction,Legend,Top*
G04 #@! TF.FilePolarity,Positive*
%FSLAX46Y46*%
G04 Gerber Fmt 4.6, Leading zero omitted, Abs format (unit mm)*
G04 Created by KiCad (PCBNEW 8.0.6) date 2025-03-14 18:00:41*
%MOMM*%
%LPD*%
G01*
G04 APERTURE LIST*
G04 Aperture macros list*
%AMRoundRect*
0 Rectangle with rounded corners*
0 $1 Rounding radius*
0 $2 $3 $4 $5 $6 $7 $8 $9 X,Y pos of 4 corners*
0 Add a 4 corners polygon primitive as box body*
4,1,4,$2,$3,$4,$5,$6,$7,$8,$9,$2,$3,0*
0 Add four circle primitives for the rounded corners*
1,1,$1+$1,$2,$3*
1,1,$1+$1,$4,$5*
1,1,$1+$1,$6,$7*
1,1,$1+$1,$8,$9*
0 Add four rect primitives between the rounded corners*
20,1,$1+$1,$2,$3,$4,$5,0*
20,1,$1+$1,$4,$5,$6,$7,0*
20,1,$1+$1,$6,$7,$8,$9,0*
20,1,$1+$1,$8,$9,$2,$3,0*%
G04 Aperture macros list end*
%ADD10C,0.100000*%
%ADD11C,0.150000*%
%ADD12C,0.254000*%
%ADD13C,0.120000*%
%ADD14C,0.200000*%
%ADD15RoundRect,0.250000X-0.450000X0.262500X-0.450000X-0.262500X0.450000X-0.262500X0.450000X0.262500X0*%
%ADD16RoundRect,0.150000X0.150000X-0.587500X0.150000X0.587500X-0.150000X0.587500X-0.150000X-0.587500X0*%
%ADD17RoundRect,0.250000X0.262500X0.450000X-0.262500X0.450000X-0.262500X-0.450000X0.262500X-0.450000X0*%
%ADD18RoundRect,0.250000X-0.262500X-0.450000X0.262500X-0.450000X0.262500X0.450000X-0.262500X0.450000X0*%
%ADD19RoundRect,0.150000X0.587500X0.150000X-0.587500X0.150000X-0.587500X-0.150000X0.587500X-0.150000X0*%
%ADD20R,1.950000X1.950000*%
%ADD21C,1.950000*%
G04 APERTURE END LIST*
D10*
X134534836Y-90873609D02*
X134534836Y-90373609D01*
X134534836Y-90373609D02*
X134653884Y-90373609D01*
X134653884Y-90373609D02*
X134725312Y-90397419D01*
X134725312Y-90397419D02*
X134772931Y-90445038D01*
X134772931Y-90445038D02*
X134796741Y-90492657D01*
X134796741Y-90492657D02*
X134820550Y-90587895D01*
X134820550Y-90587895D02*
X134820550Y-90659323D01*
X134820550Y-90659323D02*
X134796741Y-90754561D01*
X134796741Y-90754561D02*
X134772931Y-90802180D01*
X134772931Y-90802180D02*
X134725312Y-90849800D01*
X134725312Y-90849800D02*
X134653884Y-90873609D01*
X134653884Y-90873609D02*
X134534836Y-90873609D01*
X135011027Y-90730752D02*
X135249122Y-90730752D01*
X134963408Y-90873609D02*
X135130074Y-90373609D01*
X135130074Y-90373609D02*
X135296741Y-90873609D01*
X135796740Y-90921228D02*
X135749121Y-90897419D01*
X135749121Y-90897419D02*
X135701502Y-90849800D01*
X135701502Y-90849800D02*
X135630074Y-90778371D01*
X135630074Y-90778371D02*
X135582455Y-90754561D01*
X135582455Y-90754561D02*
X135534836Y-90754561D01*
X135558645Y-90873609D02*
X135511026Y-90849800D01*
X135511026Y-90849800D02*
X135463407Y-90802180D01*
X135463407Y-90802180D02*
X135439598Y-90706942D01*
X135439598Y-90706942D02*
X135439598Y-90540276D01*
X135439598Y-90540276D02*
X135463407Y-90445038D01*
X135463407Y-90445038D02*
X135511026Y-90397419D01*
X135511026Y-90397419D02*
X135558645Y-90373609D01*
X135558645Y-90373609D02*
X135653883Y-90373609D01*
X135653883Y-90373609D02*
X135701502Y-90397419D01*
X135701502Y-90397419D02*
X135749121Y-90445038D01*
X135749121Y-90445038D02*
X135772931Y-90540276D01*
X135772931Y-90540276D02*
X135772931Y-90706942D01*
X135772931Y-90706942D02*
X135749121Y-90802180D01*
X135749121Y-90802180D02*
X135701502Y-90849800D01*
X135701502Y-90849800D02*
X135653883Y-90873609D01*
X135653883Y-90873609D02*
X135558645Y-90873609D01*
X136463407Y-90373609D02*
X136558645Y-90373609D01*
X136558645Y-90373609D02*
X136606264Y-90397419D01*
X136606264Y-90397419D02*
X136653883Y-90445038D01*
X136653883Y-90445038D02*
X136677693Y-90540276D01*
X136677693Y-90540276D02*
X136677693Y-90706942D01*
X136677693Y-90706942D02*
X136653883Y-90802180D01*
X136653883Y-90802180D02*
X136606264Y-90849800D01*
X136606264Y-90849800D02*
X136558645Y-90873609D01*
X136558645Y-90873609D02*
X136463407Y-90873609D01*
X136463407Y-90873609D02*
X136415788Y-90849800D01*
X136415788Y-90849800D02*
X136368169Y-90802180D01*
X136368169Y-90802180D02*
X136344360Y-90706942D01*
X136344360Y-90706942D02*
X136344360Y-90540276D01*
X136344360Y-90540276D02*
X136368169Y-90445038D01*
X136368169Y-90445038D02*
X136415788Y-90397419D01*
X136415788Y-90397419D02*
X136463407Y-90373609D01*
X136891979Y-90373609D02*
X136891979Y-90778371D01*
X136891979Y-90778371D02*
X136915789Y-90825990D01*
X136915789Y-90825990D02*
X136939598Y-90849800D01*
X136939598Y-90849800D02*
X136987217Y-90873609D01*
X136987217Y-90873609D02*
X137082455Y-90873609D01*
X137082455Y-90873609D02*
X137130074Y-90849800D01*
X137130074Y-90849800D02*
X137153884Y-90825990D01*
X137153884Y-90825990D02*
X137177693Y-90778371D01*
X137177693Y-90778371D02*
X137177693Y-90373609D01*
X137344361Y-90373609D02*
X137630075Y-90373609D01*
X137487218Y-90873609D02*
X137487218Y-90373609D01*
X138130074Y-90373609D02*
X138439598Y-90373609D01*
X138439598Y-90373609D02*
X138272931Y-90564085D01*
X138272931Y-90564085D02*
X138344360Y-90564085D01*
X138344360Y-90564085D02*
X138391979Y-90587895D01*
X138391979Y-90587895D02*
X138415788Y-90611704D01*
X138415788Y-90611704D02*
X138439598Y-90659323D01*
X138439598Y-90659323D02*
X138439598Y-90778371D01*
X138439598Y-90778371D02*
X138415788Y-90825990D01*
X138415788Y-90825990D02*
X138391979Y-90849800D01*
X138391979Y-90849800D02*
X138344360Y-90873609D01*
X138344360Y-90873609D02*
X138201503Y-90873609D01*
X138201503Y-90873609D02*
X138153884Y-90849800D01*
X138153884Y-90849800D02*
X138130074Y-90825990D01*
X138653883Y-90825990D02*
X138677693Y-90849800D01*
X138677693Y-90849800D02*
X138653883Y-90873609D01*
X138653883Y-90873609D02*
X138630074Y-90849800D01*
X138630074Y-90849800D02*
X138653883Y-90825990D01*
X138653883Y-90825990D02*
X138653883Y-90873609D01*
X138844359Y-90373609D02*
X139153883Y-90373609D01*
X139153883Y-90373609D02*
X138987216Y-90564085D01*
X138987216Y-90564085D02*
X139058645Y-90564085D01*
X139058645Y-90564085D02*
X139106264Y-90587895D01*
X139106264Y-90587895D02*
X139130073Y-90611704D01*
X139130073Y-90611704D02*
X139153883Y-90659323D01*
X139153883Y-90659323D02*
X139153883Y-90778371D01*
X139153883Y-90778371D02*
X139130073Y-90825990D01*
X139130073Y-90825990D02*
X139106264Y-90849800D01*
X139106264Y-90849800D02*
X139058645Y-90873609D01*
X139058645Y-90873609D02*
X138915788Y-90873609D01*
X138915788Y-90873609D02*
X138868169Y-90849800D01*
X138868169Y-90849800D02*
X138844359Y-90825990D01*
X139677692Y-90373609D02*
X139844358Y-90873609D01*
X139844358Y-90873609D02*
X140011025Y-90373609D01*
X128532931Y-80233609D02*
X128294836Y-80233609D01*
X128294836Y-80233609D02*
X128294836Y-79733609D01*
X128699598Y-80233609D02*
X128699598Y-79900276D01*
X128699598Y-79733609D02*
X128675789Y-79757419D01*
X128675789Y-79757419D02*
X128699598Y-79781228D01*
X128699598Y-79781228D02*
X128723408Y-79757419D01*
X128723408Y-79757419D02*
X128699598Y-79733609D01*
X128699598Y-79733609D02*
X128699598Y-79781228D01*
X128937693Y-79900276D02*
X128937693Y-80233609D01*
X128937693Y-79947895D02*
X128961503Y-79924085D01*
X128961503Y-79924085D02*
X129009122Y-79900276D01*
X129009122Y-79900276D02*
X129080550Y-79900276D01*
X129080550Y-79900276D02*
X129128169Y-79924085D01*
X129128169Y-79924085D02*
X129151979Y-79971704D01*
X129151979Y-79971704D02*
X129151979Y-80233609D01*
X129390074Y-80233609D02*
X129390074Y-79733609D01*
X129390074Y-79733609D02*
X129556741Y-80090752D01*
X129556741Y-80090752D02*
X129723407Y-79733609D01*
X129723407Y-79733609D02*
X129723407Y-80233609D01*
X130032932Y-80233609D02*
X129985313Y-80209800D01*
X129985313Y-80209800D02*
X129961503Y-80185990D01*
X129961503Y-80185990D02*
X129937694Y-80138371D01*
X129937694Y-80138371D02*
X129937694Y-79995514D01*
X129937694Y-79995514D02*
X129961503Y-79947895D01*
X129961503Y-79947895D02*
X129985313Y-79924085D01*
X129985313Y-79924085D02*
X130032932Y-79900276D01*
X130032932Y-79900276D02*
X130104360Y-79900276D01*
X130104360Y-79900276D02*
X130151979Y-79924085D01*
X130151979Y-79924085D02*
X130175789Y-79947895D01*
X130175789Y-79947895D02*
X130199598Y-79995514D01*
X130199598Y-79995514D02*
X130199598Y-80138371D01*
X130199598Y-80138371D02*
X130175789Y-80185990D01*
X130175789Y-80185990D02*
X130151979Y-80209800D01*
X130151979Y-80209800D02*
X130104360Y-80233609D01*
X130104360Y-80233609D02*
X130032932Y-80233609D01*
X130342456Y-79900276D02*
X130532932Y-79900276D01*
X130413884Y-79733609D02*
X130413884Y-80162180D01*
X130413884Y-80162180D02*
X130437694Y-80209800D01*
X130437694Y-80209800D02*
X130485313Y-80233609D01*
X130485313Y-80233609D02*
X130532932Y-80233609D01*
X131080550Y-80233609D02*
X131080550Y-79733609D01*
X131318645Y-80233609D02*
X131318645Y-79733609D01*
X131318645Y-79733609D02*
X131604359Y-80233609D01*
X131604359Y-80233609D02*
X131604359Y-79733609D01*
X129466741Y-77837419D02*
X129419122Y-77813609D01*
X129419122Y-77813609D02*
X129347693Y-77813609D01*
X129347693Y-77813609D02*
X129276265Y-77837419D01*
X129276265Y-77837419D02*
X129228646Y-77885038D01*
X129228646Y-77885038D02*
X129204836Y-77932657D01*
X129204836Y-77932657D02*
X129181027Y-78027895D01*
X129181027Y-78027895D02*
X129181027Y-78099323D01*
X129181027Y-78099323D02*
X129204836Y-78194561D01*
X129204836Y-78194561D02*
X129228646Y-78242180D01*
X129228646Y-78242180D02*
X129276265Y-78289800D01*
X129276265Y-78289800D02*
X129347693Y-78313609D01*
X129347693Y-78313609D02*
X129395312Y-78313609D01*
X129395312Y-78313609D02*
X129466741Y-78289800D01*
X129466741Y-78289800D02*
X129490550Y-78265990D01*
X129490550Y-78265990D02*
X129490550Y-78099323D01*
X129490550Y-78099323D02*
X129395312Y-78099323D01*
X129704836Y-78313609D02*
X129704836Y-77813609D01*
X129704836Y-77813609D02*
X129990550Y-78313609D01*
X129990550Y-78313609D02*
X129990550Y-77813609D01*
X130228646Y-78313609D02*
X130228646Y-77813609D01*
X130228646Y-77813609D02*
X130347694Y-77813609D01*
X130347694Y-77813609D02*
X130419122Y-77837419D01*
X130419122Y-77837419D02*
X130466741Y-77885038D01*
X130466741Y-77885038D02*
X130490551Y-77932657D01*
X130490551Y-77932657D02*
X130514360Y-78027895D01*
X130514360Y-78027895D02*
X130514360Y-78099323D01*
X130514360Y-78099323D02*
X130490551Y-78194561D01*
X130490551Y-78194561D02*
X130466741Y-78242180D01*
X130466741Y-78242180D02*
X130419122Y-78289800D01*
X130419122Y-78289800D02*
X130347694Y-78313609D01*
X130347694Y-78313609D02*
X130228646Y-78313609D01*
X134541027Y-67041228D02*
X134564836Y-67017419D01*
X134564836Y-67017419D02*
X134612455Y-66993609D01*
X134612455Y-66993609D02*
X134731503Y-66993609D01*
X134731503Y-66993609D02*
X134779122Y-67017419D01*
X134779122Y-67017419D02*
X134802931Y-67041228D01*
X134802931Y-67041228D02*
X134826741Y-67088847D01*
X134826741Y-67088847D02*
X134826741Y-67136466D01*
X134826741Y-67136466D02*
X134802931Y-67207895D01*
X134802931Y-67207895D02*
X134517217Y-67493609D01*
X134517217Y-67493609D02*
X134826741Y-67493609D01*
X135255312Y-67160276D02*
X135255312Y-67493609D01*
X135136264Y-66969800D02*
X135017217Y-67326942D01*
X135017217Y-67326942D02*
X135326740Y-67326942D01*
X135826740Y-66993609D02*
X135993406Y-67493609D01*
X135993406Y-67493609D02*
X136160073Y-66993609D01*
X136326739Y-67493609D02*
X136326739Y-66993609D01*
X136326739Y-66993609D02*
X136445787Y-66993609D01*
X136445787Y-66993609D02*
X136517215Y-67017419D01*
X136517215Y-67017419D02*
X136564834Y-67065038D01*
X136564834Y-67065038D02*
X136588644Y-67112657D01*
X136588644Y-67112657D02*
X136612453Y-67207895D01*
X136612453Y-67207895D02*
X136612453Y-67279323D01*
X136612453Y-67279323D02*
X136588644Y-67374561D01*
X136588644Y-67374561D02*
X136564834Y-67422180D01*
X136564834Y-67422180D02*
X136517215Y-67469800D01*
X136517215Y-67469800D02*
X136445787Y-67493609D01*
X136445787Y-67493609D02*
X136326739Y-67493609D01*
X137112453Y-67445990D02*
X137088644Y-67469800D01*
X137088644Y-67469800D02*
X137017215Y-67493609D01*
X137017215Y-67493609D02*
X136969596Y-67493609D01*
X136969596Y-67493609D02*
X136898168Y-67469800D01*
X136898168Y-67469800D02*
X136850549Y-67422180D01*
X136850549Y-67422180D02*
X136826739Y-67374561D01*
X136826739Y-67374561D02*
X136802930Y-67279323D01*
X136802930Y-67279323D02*
X136802930Y-67207895D01*
X136802930Y-67207895D02*
X136826739Y-67112657D01*
X136826739Y-67112657D02*
X136850549Y-67065038D01*
X136850549Y-67065038D02*
X136898168Y-67017419D01*
X136898168Y-67017419D02*
X136969596Y-66993609D01*
X136969596Y-66993609D02*
X137017215Y-66993609D01*
X137017215Y-66993609D02*
X137088644Y-67017419D01*
X137088644Y-67017419D02*
X137112453Y-67041228D01*
D11*
X143813922Y-67809875D02*
X144385350Y-67809875D01*
X144099636Y-68809875D02*
X144099636Y-67809875D01*
X144718684Y-68286065D02*
X145052017Y-68286065D01*
X145194874Y-68809875D02*
X144718684Y-68809875D01*
X144718684Y-68809875D02*
X144718684Y-67809875D01*
X144718684Y-67809875D02*
X145194874Y-67809875D01*
X145623446Y-68809875D02*
X145623446Y-67809875D01*
X145623446Y-67809875D02*
X146194874Y-68809875D01*
X146194874Y-68809875D02*
X146194874Y-67809875D01*
X147194874Y-67857494D02*
X147099636Y-67809875D01*
X147099636Y-67809875D02*
X146956779Y-67809875D01*
X146956779Y-67809875D02*
X146813922Y-67857494D01*
X146813922Y-67857494D02*
X146718684Y-67952732D01*
X146718684Y-67952732D02*
X146671065Y-68047970D01*
X146671065Y-68047970D02*
X146623446Y-68238446D01*
X146623446Y-68238446D02*
X146623446Y-68381303D01*
X146623446Y-68381303D02*
X146671065Y-68571779D01*
X146671065Y-68571779D02*
X146718684Y-68667017D01*
X146718684Y-68667017D02*
X146813922Y-68762256D01*
X146813922Y-68762256D02*
X146956779Y-68809875D01*
X146956779Y-68809875D02*
X147052017Y-68809875D01*
X147052017Y-68809875D02*
X147194874Y-68762256D01*
X147194874Y-68762256D02*
X147242493Y-68714636D01*
X147242493Y-68714636D02*
X147242493Y-68381303D01*
X147242493Y-68381303D02*
X147052017Y-68381303D01*
X148909160Y-68809875D02*
X148432970Y-68809875D01*
X148432970Y-68809875D02*
X148432970Y-67809875D01*
X149242494Y-68809875D02*
X149242494Y-68143208D01*
X149242494Y-67809875D02*
X149194875Y-67857494D01*
X149194875Y-67857494D02*
X149242494Y-67905113D01*
X149242494Y-67905113D02*
X149290113Y-67857494D01*
X149290113Y-67857494D02*
X149242494Y-67809875D01*
X149242494Y-67809875D02*
X149242494Y-67905113D01*
X149718684Y-68143208D02*
X149718684Y-68809875D01*
X149718684Y-68238446D02*
X149766303Y-68190827D01*
X149766303Y-68190827D02*
X149861541Y-68143208D01*
X149861541Y-68143208D02*
X150004398Y-68143208D01*
X150004398Y-68143208D02*
X150099636Y-68190827D01*
X150099636Y-68190827D02*
X150147255Y-68286065D01*
X150147255Y-68286065D02*
X150147255Y-68809875D01*
X150623446Y-68809875D02*
X150623446Y-68143208D01*
X150623446Y-68238446D02*
X150671065Y-68190827D01*
X150671065Y-68190827D02*
X150766303Y-68143208D01*
X150766303Y-68143208D02*
X150909160Y-68143208D01*
X150909160Y-68143208D02*
X151004398Y-68190827D01*
X151004398Y-68190827D02*
X151052017Y-68286065D01*
X151052017Y-68286065D02*
X151052017Y-68809875D01*
X151052017Y-68286065D02*
X151099636Y-68190827D01*
X151099636Y-68190827D02*
X151194874Y-68143208D01*
X151194874Y-68143208D02*
X151337731Y-68143208D01*
X151337731Y-68143208D02*
X151432970Y-68190827D01*
X151432970Y-68190827D02*
X151480589Y-68286065D01*
X151480589Y-68286065D02*
X151480589Y-68809875D01*
X152099636Y-68809875D02*
X152004398Y-68762256D01*
X152004398Y-68762256D02*
X151956779Y-68714636D01*
X151956779Y-68714636D02*
X151909160Y-68619398D01*
X151909160Y-68619398D02*
X151909160Y-68333684D01*
X151909160Y-68333684D02*
X151956779Y-68238446D01*
X151956779Y-68238446D02*
X152004398Y-68190827D01*
X152004398Y-68190827D02*
X152099636Y-68143208D01*
X152099636Y-68143208D02*
X152242493Y-68143208D01*
X152242493Y-68143208D02*
X152337731Y-68190827D01*
X152337731Y-68190827D02*
X152385350Y-68238446D01*
X152385350Y-68238446D02*
X152432969Y-68333684D01*
X152432969Y-68333684D02*
X152432969Y-68619398D01*
X152432969Y-68619398D02*
X152385350Y-68714636D01*
X152385350Y-68714636D02*
X152337731Y-68762256D01*
X152337731Y-68762256D02*
X152242493Y-68809875D01*
X152242493Y-68809875D02*
X152099636Y-68809875D01*
X152718684Y-68143208D02*
X153099636Y-68143208D01*
X152861541Y-67809875D02*
X152861541Y-68667017D01*
X152861541Y-68667017D02*
X152909160Y-68762256D01*
X152909160Y-68762256D02*
X153004398Y-68809875D01*
X153004398Y-68809875D02*
X153099636Y-68809875D01*
X154194875Y-68809875D02*
X154194875Y-67809875D01*
X154194875Y-67809875D02*
X154432970Y-67809875D01*
X154432970Y-67809875D02*
X154575827Y-67857494D01*
X154575827Y-67857494D02*
X154671065Y-67952732D01*
X154671065Y-67952732D02*
X154718684Y-68047970D01*
X154718684Y-68047970D02*
X154766303Y-68238446D01*
X154766303Y-68238446D02*
X154766303Y-68381303D01*
X154766303Y-68381303D02*
X154718684Y-68571779D01*
X154718684Y-68571779D02*
X154671065Y-68667017D01*
X154671065Y-68667017D02*
X154575827Y-68762256D01*
X154575827Y-68762256D02*
X154432970Y-68809875D01*
X154432970Y-68809875D02*
X154194875Y-68809875D01*
X155194875Y-68809875D02*
X155194875Y-68143208D01*
X155194875Y-67809875D02*
X155147256Y-67857494D01*
X155147256Y-67857494D02*
X155194875Y-67905113D01*
X155194875Y-67905113D02*
X155242494Y-67857494D01*
X155242494Y-67857494D02*
X155194875Y-67809875D01*
X155194875Y-67809875D02*
X155194875Y-67905113D01*
X156099636Y-68143208D02*
X156099636Y-68952732D01*
X156099636Y-68952732D02*
X156052017Y-69047970D01*
X156052017Y-69047970D02*
X156004398Y-69095589D01*
X156004398Y-69095589D02*
X155909160Y-69143208D01*
X155909160Y-69143208D02*
X155766303Y-69143208D01*
X155766303Y-69143208D02*
X155671065Y-69095589D01*
X156099636Y-68762256D02*
X156004398Y-68809875D01*
X156004398Y-68809875D02*
X155813922Y-68809875D01*
X155813922Y-68809875D02*
X155718684Y-68762256D01*
X155718684Y-68762256D02*
X155671065Y-68714636D01*
X155671065Y-68714636D02*
X155623446Y-68619398D01*
X155623446Y-68619398D02*
X155623446Y-68333684D01*
X155623446Y-68333684D02*
X155671065Y-68238446D01*
X155671065Y-68238446D02*
X155718684Y-68190827D01*
X155718684Y-68190827D02*
X155813922Y-68143208D01*
X155813922Y-68143208D02*
X156004398Y-68143208D01*
X156004398Y-68143208D02*
X156099636Y-68190827D01*
X156575827Y-68809875D02*
X156575827Y-68143208D01*
X156575827Y-67809875D02*
X156528208Y-67857494D01*
X156528208Y-67857494D02*
X156575827Y-67905113D01*
X156575827Y-67905113D02*
X156623446Y-67857494D01*
X156623446Y-67857494D02*
X156575827Y-67809875D01*
X156575827Y-67809875D02*
X156575827Y-67905113D01*
X156909160Y-68143208D02*
X157290112Y-68143208D01*
X157052017Y-67809875D02*
X157052017Y-68667017D01*
X157052017Y-68667017D02*
X157099636Y-68762256D01*
X157099636Y-68762256D02*
X157194874Y-68809875D01*
X157194874Y-68809875D02*
X157290112Y-68809875D01*
X158052017Y-68809875D02*
X158052017Y-68286065D01*
X158052017Y-68286065D02*
X158004398Y-68190827D01*
X158004398Y-68190827D02*
X157909160Y-68143208D01*
X157909160Y-68143208D02*
X157718684Y-68143208D01*
X157718684Y-68143208D02*
X157623446Y-68190827D01*
X158052017Y-68762256D02*
X157956779Y-68809875D01*
X157956779Y-68809875D02*
X157718684Y-68809875D01*
X157718684Y-68809875D02*
X157623446Y-68762256D01*
X157623446Y-68762256D02*
X157575827Y-68667017D01*
X157575827Y-68667017D02*
X157575827Y-68571779D01*
X157575827Y-68571779D02*
X157623446Y-68476541D01*
X157623446Y-68476541D02*
X157718684Y-68428922D01*
X157718684Y-68428922D02*
X157956779Y-68428922D01*
X157956779Y-68428922D02*
X158052017Y-68381303D01*
X158671065Y-68809875D02*
X158575827Y-68762256D01*
X158575827Y-68762256D02*
X158528208Y-68667017D01*
X158528208Y-68667017D02*
X158528208Y-67809875D01*
X144385350Y-70419819D02*
X144385350Y-69896009D01*
X144385350Y-69896009D02*
X144337731Y-69800771D01*
X144337731Y-69800771D02*
X144242493Y-69753152D01*
X144242493Y-69753152D02*
X144052017Y-69753152D01*
X144052017Y-69753152D02*
X143956779Y-69800771D01*
X144385350Y-70372200D02*
X144290112Y-70419819D01*
X144290112Y-70419819D02*
X144052017Y-70419819D01*
X144052017Y-70419819D02*
X143956779Y-70372200D01*
X143956779Y-70372200D02*
X143909160Y-70276961D01*
X143909160Y-70276961D02*
X143909160Y-70181723D01*
X143909160Y-70181723D02*
X143956779Y-70086485D01*
X143956779Y-70086485D02*
X144052017Y-70038866D01*
X144052017Y-70038866D02*
X144290112Y-70038866D01*
X144290112Y-70038866D02*
X144385350Y-69991247D01*
X144861541Y-69753152D02*
X144861541Y-70419819D01*
X144861541Y-69848390D02*
X144909160Y-69800771D01*
X144909160Y-69800771D02*
X145004398Y-69753152D01*
X145004398Y-69753152D02*
X145147255Y-69753152D01*
X145147255Y-69753152D02*
X145242493Y-69800771D01*
X145242493Y-69800771D02*
X145290112Y-69896009D01*
X145290112Y-69896009D02*
X145290112Y-70419819D01*
X146194874Y-70419819D02*
X146194874Y-69419819D01*
X146194874Y-70372200D02*
X146099636Y-70419819D01*
X146099636Y-70419819D02*
X145909160Y-70419819D01*
X145909160Y-70419819D02*
X145813922Y-70372200D01*
X145813922Y-70372200D02*
X145766303Y-70324580D01*
X145766303Y-70324580D02*
X145718684Y-70229342D01*
X145718684Y-70229342D02*
X145718684Y-69943628D01*
X145718684Y-69943628D02*
X145766303Y-69848390D01*
X145766303Y-69848390D02*
X145813922Y-69800771D01*
X145813922Y-69800771D02*
X145909160Y-69753152D01*
X145909160Y-69753152D02*
X146099636Y-69753152D01*
X146099636Y-69753152D02*
X146194874Y-69800771D01*
X147432970Y-70419819D02*
X147432970Y-69419819D01*
X147432970Y-69419819D02*
X147766303Y-70134104D01*
X147766303Y-70134104D02*
X148099636Y-69419819D01*
X148099636Y-69419819D02*
X148099636Y-70419819D01*
X149004398Y-70419819D02*
X149004398Y-69896009D01*
X149004398Y-69896009D02*
X148956779Y-69800771D01*
X148956779Y-69800771D02*
X148861541Y-69753152D01*
X148861541Y-69753152D02*
X148671065Y-69753152D01*
X148671065Y-69753152D02*
X148575827Y-69800771D01*
X149004398Y-70372200D02*
X148909160Y-70419819D01*
X148909160Y-70419819D02*
X148671065Y-70419819D01*
X148671065Y-70419819D02*
X148575827Y-70372200D01*
X148575827Y-70372200D02*
X148528208Y-70276961D01*
X148528208Y-70276961D02*
X148528208Y-70181723D01*
X148528208Y-70181723D02*
X148575827Y-70086485D01*
X148575827Y-70086485D02*
X148671065Y-70038866D01*
X148671065Y-70038866D02*
X148909160Y-70038866D01*
X148909160Y-70038866D02*
X149004398Y-69991247D01*
X149480589Y-69753152D02*
X149480589Y-70419819D01*
X149480589Y-69848390D02*
X149528208Y-69800771D01*
X149528208Y-69800771D02*
X149623446Y-69753152D01*
X149623446Y-69753152D02*
X149766303Y-69753152D01*
X149766303Y-69753152D02*
X149861541Y-69800771D01*
X149861541Y-69800771D02*
X149909160Y-69896009D01*
X149909160Y-69896009D02*
X149909160Y-70419819D01*
X150813922Y-69753152D02*
X150813922Y-70419819D01*
X150385351Y-69753152D02*
X150385351Y-70276961D01*
X150385351Y-70276961D02*
X150432970Y-70372200D01*
X150432970Y-70372200D02*
X150528208Y-70419819D01*
X150528208Y-70419819D02*
X150671065Y-70419819D01*
X150671065Y-70419819D02*
X150766303Y-70372200D01*
X150766303Y-70372200D02*
X150813922Y-70324580D01*
X151718684Y-70419819D02*
X151718684Y-69896009D01*
X151718684Y-69896009D02*
X151671065Y-69800771D01*
X151671065Y-69800771D02*
X151575827Y-69753152D01*
X151575827Y-69753152D02*
X151385351Y-69753152D01*
X151385351Y-69753152D02*
X151290113Y-69800771D01*
X151718684Y-70372200D02*
X151623446Y-70419819D01*
X151623446Y-70419819D02*
X151385351Y-70419819D01*
X151385351Y-70419819D02*
X151290113Y-70372200D01*
X151290113Y-70372200D02*
X151242494Y-70276961D01*
X151242494Y-70276961D02*
X151242494Y-70181723D01*
X151242494Y-70181723D02*
X151290113Y-70086485D01*
X151290113Y-70086485D02*
X151385351Y-70038866D01*
X151385351Y-70038866D02*
X151623446Y-70038866D01*
X151623446Y-70038866D02*
X151718684Y-69991247D01*
X152337732Y-70419819D02*
X152242494Y-70372200D01*
X152242494Y-70372200D02*
X152194875Y-70276961D01*
X152194875Y-70276961D02*
X152194875Y-69419819D01*
X153337733Y-69419819D02*
X153909161Y-69419819D01*
X153623447Y-70419819D02*
X153623447Y-69419819D01*
X154242495Y-70419819D02*
X154242495Y-69753152D01*
X154242495Y-69943628D02*
X154290114Y-69848390D01*
X154290114Y-69848390D02*
X154337733Y-69800771D01*
X154337733Y-69800771D02*
X154432971Y-69753152D01*
X154432971Y-69753152D02*
X154528209Y-69753152D01*
X154861543Y-70419819D02*
X154861543Y-69753152D01*
X154861543Y-69419819D02*
X154813924Y-69467438D01*
X154813924Y-69467438D02*
X154861543Y-69515057D01*
X154861543Y-69515057D02*
X154909162Y-69467438D01*
X154909162Y-69467438D02*
X154861543Y-69419819D01*
X154861543Y-69419819D02*
X154861543Y-69515057D01*
X155766304Y-69753152D02*
X155766304Y-70562676D01*
X155766304Y-70562676D02*
X155718685Y-70657914D01*
X155718685Y-70657914D02*
X155671066Y-70705533D01*
X155671066Y-70705533D02*
X155575828Y-70753152D01*
X155575828Y-70753152D02*
X155432971Y-70753152D01*
X155432971Y-70753152D02*
X155337733Y-70705533D01*
X155766304Y-70372200D02*
X155671066Y-70419819D01*
X155671066Y-70419819D02*
X155480590Y-70419819D01*
X155480590Y-70419819D02*
X155385352Y-70372200D01*
X155385352Y-70372200D02*
X155337733Y-70324580D01*
X155337733Y-70324580D02*
X155290114Y-70229342D01*
X155290114Y-70229342D02*
X155290114Y-69943628D01*
X155290114Y-69943628D02*
X155337733Y-69848390D01*
X155337733Y-69848390D02*
X155385352Y-69800771D01*
X155385352Y-69800771D02*
X155480590Y-69753152D01*
X155480590Y-69753152D02*
X155671066Y-69753152D01*
X155671066Y-69753152D02*
X155766304Y-69800771D01*
X156671066Y-69753152D02*
X156671066Y-70562676D01*
X156671066Y-70562676D02*
X156623447Y-70657914D01*
X156623447Y-70657914D02*
X156575828Y-70705533D01*
X156575828Y-70705533D02*
X156480590Y-70753152D01*
X156480590Y-70753152D02*
X156337733Y-70753152D01*
X156337733Y-70753152D02*
X156242495Y-70705533D01*
X156671066Y-70372200D02*
X156575828Y-70419819D01*
X156575828Y-70419819D02*
X156385352Y-70419819D01*
X156385352Y-70419819D02*
X156290114Y-70372200D01*
X156290114Y-70372200D02*
X156242495Y-70324580D01*
X156242495Y-70324580D02*
X156194876Y-70229342D01*
X156194876Y-70229342D02*
X156194876Y-69943628D01*
X156194876Y-69943628D02*
X156242495Y-69848390D01*
X156242495Y-69848390D02*
X156290114Y-69800771D01*
X156290114Y-69800771D02*
X156385352Y-69753152D01*
X156385352Y-69753152D02*
X156575828Y-69753152D01*
X156575828Y-69753152D02*
X156671066Y-69800771D01*
X157528209Y-70372200D02*
X157432971Y-70419819D01*
X157432971Y-70419819D02*
X157242495Y-70419819D01*
X157242495Y-70419819D02*
X157147257Y-70372200D01*
X157147257Y-70372200D02*
X157099638Y-70276961D01*
X157099638Y-70276961D02*
X157099638Y-69896009D01*
X157099638Y-69896009D02*
X157147257Y-69800771D01*
X157147257Y-69800771D02*
X157242495Y-69753152D01*
X157242495Y-69753152D02*
X157432971Y-69753152D01*
X157432971Y-69753152D02*
X157528209Y-69800771D01*
X157528209Y-69800771D02*
X157575828Y-69896009D01*
X157575828Y-69896009D02*
X157575828Y-69991247D01*
X157575828Y-69991247D02*
X157099638Y-70086485D01*
X158004400Y-70419819D02*
X158004400Y-69753152D01*
X158004400Y-69943628D02*
X158052019Y-69848390D01*
X158052019Y-69848390D02*
X158099638Y-69800771D01*
X158099638Y-69800771D02*
X158194876Y-69753152D01*
X158194876Y-69753152D02*
X158290114Y-69753152D01*
X140164819Y-86146666D02*
X139688628Y-86479999D01*
X140164819Y-86718094D02*
X139164819Y-86718094D01*
X139164819Y-86718094D02*
X139164819Y-86337142D01*
X139164819Y-86337142D02*
X139212438Y-86241904D01*
X139212438Y-86241904D02*
X139260057Y-86194285D01*
X139260057Y-86194285D02*
X139355295Y-86146666D01*
X139355295Y-86146666D02*
X139498152Y-86146666D01*
X139498152Y-86146666D02*
X139593390Y-86194285D01*
X139593390Y-86194285D02*
X139641009Y-86241904D01*
X139641009Y-86241904D02*
X139688628Y-86337142D01*
X139688628Y-86337142D02*
X139688628Y-86718094D01*
X139164819Y-85813332D02*
X139164819Y-85194285D01*
X139164819Y-85194285D02*
X139545771Y-85527618D01*
X139545771Y-85527618D02*
X139545771Y-85384761D01*
X139545771Y-85384761D02*
X139593390Y-85289523D01*
X139593390Y-85289523D02*
X139641009Y-85241904D01*
X139641009Y-85241904D02*
X139736247Y-85194285D01*
X139736247Y-85194285D02*
X139974342Y-85194285D01*
X139974342Y-85194285D02*
X140069580Y-85241904D01*
X140069580Y-85241904D02*
X140117200Y-85289523D01*
X140117200Y-85289523D02*
X140164819Y-85384761D01*
X140164819Y-85384761D02*
X140164819Y-85670475D01*
X140164819Y-85670475D02*
X140117200Y-85765713D01*
X140117200Y-85765713D02*
X140069580Y-85813332D01*
X146264761Y-85820057D02*
X146169523Y-85772438D01*
X146169523Y-85772438D02*
X146074285Y-85677200D01*
X146074285Y-85677200D02*
X145931428Y-85534342D01*
X145931428Y-85534342D02*
X145836190Y-85486723D01*
X145836190Y-85486723D02*
X145740952Y-85486723D01*
X145788571Y-85724819D02*
X145693333Y-85677200D01*
X145693333Y-85677200D02*
X145598095Y-85581961D01*
X145598095Y-85581961D02*
X145550476Y-85391485D01*
X145550476Y-85391485D02*
X145550476Y-85058152D01*
X145550476Y-85058152D02*
X145598095Y-84867676D01*
X145598095Y-84867676D02*
X145693333Y-84772438D01*
X145693333Y-84772438D02*
X145788571Y-84724819D01*
X145788571Y-84724819D02*
X145979047Y-84724819D01*
X145979047Y-84724819D02*
X146074285Y-84772438D01*
X146074285Y-84772438D02*
X146169523Y-84867676D01*
X146169523Y-84867676D02*
X146217142Y-85058152D01*
X146217142Y-85058152D02*
X146217142Y-85391485D01*
X146217142Y-85391485D02*
X146169523Y-85581961D01*
X146169523Y-85581961D02*
X146074285Y-85677200D01*
X146074285Y-85677200D02*
X145979047Y-85724819D01*
X145979047Y-85724819D02*
X145788571Y-85724819D01*
X147169523Y-85724819D02*
X146598095Y-85724819D01*
X146883809Y-85724819D02*
X146883809Y-84724819D01*
X146883809Y-84724819D02*
X146788571Y-84867676D01*
X146788571Y-84867676D02*
X146693333Y-84962914D01*
X146693333Y-84962914D02*
X146598095Y-85010533D01*
X148813333Y-78394819D02*
X148480000Y-77918628D01*
X148241905Y-78394819D02*
X148241905Y-77394819D01*
X148241905Y-77394819D02*
X148622857Y-77394819D01*
X148622857Y-77394819D02*
X148718095Y-77442438D01*
X148718095Y-77442438D02*
X148765714Y-77490057D01*
X148765714Y-77490057D02*
X148813333Y-77585295D01*
X148813333Y-77585295D02*
X148813333Y-77728152D01*
X148813333Y-77728152D02*
X148765714Y-77823390D01*
X148765714Y-77823390D02*
X148718095Y-77871009D01*
X148718095Y-77871009D02*
X148622857Y-77918628D01*
X148622857Y-77918628D02*
X148241905Y-77918628D01*
X149194286Y-77490057D02*
X149241905Y-77442438D01*
X149241905Y-77442438D02*
X149337143Y-77394819D01*
X149337143Y-77394819D02*
X149575238Y-77394819D01*
X149575238Y-77394819D02*
X149670476Y-77442438D01*
X149670476Y-77442438D02*
X149718095Y-77490057D01*
X149718095Y-77490057D02*
X149765714Y-77585295D01*
X149765714Y-77585295D02*
X149765714Y-77680533D01*
X149765714Y-77680533D02*
X149718095Y-77823390D01*
X149718095Y-77823390D02*
X149146667Y-78394819D01*
X149146667Y-78394819D02*
X149765714Y-78394819D01*
X139214819Y-70126666D02*
X138738628Y-70459999D01*
X139214819Y-70698094D02*
X138214819Y-70698094D01*
X138214819Y-70698094D02*
X138214819Y-70317142D01*
X138214819Y-70317142D02*
X138262438Y-70221904D01*
X138262438Y-70221904D02*
X138310057Y-70174285D01*
X138310057Y-70174285D02*
X138405295Y-70126666D01*
X138405295Y-70126666D02*
X138548152Y-70126666D01*
X138548152Y-70126666D02*
X138643390Y-70174285D01*
X138643390Y-70174285D02*
X138691009Y-70221904D01*
X138691009Y-70221904D02*
X138738628Y-70317142D01*
X138738628Y-70317142D02*
X138738628Y-70698094D01*
X138548152Y-69269523D02*
X139214819Y-69269523D01*
X138167200Y-69507618D02*
X138881485Y-69745713D01*
X138881485Y-69745713D02*
X138881485Y-69126666D01*
X141523333Y-71844819D02*
X141190000Y-71368628D01*
X140951905Y-71844819D02*
X140951905Y-70844819D01*
X140951905Y-70844819D02*
X141332857Y-70844819D01*
X141332857Y-70844819D02*
X141428095Y-70892438D01*
X141428095Y-70892438D02*
X141475714Y-70940057D01*
X141475714Y-70940057D02*
X141523333Y-71035295D01*
X141523333Y-71035295D02*
X141523333Y-71178152D01*
X141523333Y-71178152D02*
X141475714Y-71273390D01*
X141475714Y-71273390D02*
X141428095Y-71321009D01*
X141428095Y-71321009D02*
X141332857Y-71368628D01*
X141332857Y-71368628D02*
X140951905Y-71368628D01*
X142475714Y-71844819D02*
X141904286Y-71844819D01*
X142190000Y-71844819D02*
X142190000Y-70844819D01*
X142190000Y-70844819D02*
X142094762Y-70987676D01*
X142094762Y-70987676D02*
X141999524Y-71082914D01*
X141999524Y-71082914D02*
X141904286Y-71130533D01*
X139070057Y-79605238D02*
X139022438Y-79700476D01*
X139022438Y-79700476D02*
X138927200Y-79795714D01*
X138927200Y-79795714D02*
X138784342Y-79938571D01*
X138784342Y-79938571D02*
X138736723Y-80033809D01*
X138736723Y-80033809D02*
X138736723Y-80129047D01*
X138974819Y-80081428D02*
X138927200Y-80176666D01*
X138927200Y-80176666D02*
X138831961Y-80271904D01*
X138831961Y-80271904D02*
X138641485Y-80319523D01*
X138641485Y-80319523D02*
X138308152Y-80319523D01*
X138308152Y-80319523D02*
X138117676Y-80271904D01*
X138117676Y-80271904D02*
X138022438Y-80176666D01*
X138022438Y-80176666D02*
X137974819Y-80081428D01*
X137974819Y-80081428D02*
X137974819Y-79890952D01*
X137974819Y-79890952D02*
X138022438Y-79795714D01*
X138022438Y-79795714D02*
X138117676Y-79700476D01*
X138117676Y-79700476D02*
X138308152Y-79652857D01*
X138308152Y-79652857D02*
X138641485Y-79652857D01*
X138641485Y-79652857D02*
X138831961Y-79700476D01*
X138831961Y-79700476D02*
X138927200Y-79795714D01*
X138927200Y-79795714D02*
X138974819Y-79890952D01*
X138974819Y-79890952D02*
X138974819Y-80081428D01*
X138070057Y-79271904D02*
X138022438Y-79224285D01*
X138022438Y-79224285D02*
X137974819Y-79129047D01*
X137974819Y-79129047D02*
X137974819Y-78890952D01*
X137974819Y-78890952D02*
X138022438Y-78795714D01*
X138022438Y-78795714D02*
X138070057Y-78748095D01*
X138070057Y-78748095D02*
X138165295Y-78700476D01*
X138165295Y-78700476D02*
X138260533Y-78700476D01*
X138260533Y-78700476D02*
X138403390Y-78748095D01*
X138403390Y-78748095D02*
X138974819Y-79319523D01*
X138974819Y-79319523D02*
X138974819Y-78700476D01*
D12*
X126534318Y-86113332D02*
X127441461Y-86113332D01*
X127441461Y-86113332D02*
X127622889Y-86173809D01*
X127622889Y-86173809D02*
X127743842Y-86294761D01*
X127743842Y-86294761D02*
X127804318Y-86476190D01*
X127804318Y-86476190D02*
X127804318Y-86597142D01*
X126655270Y-85569047D02*
X126594794Y-85508571D01*
X126594794Y-85508571D02*
X126534318Y-85387618D01*
X126534318Y-85387618D02*
X126534318Y-85085237D01*
X126534318Y-85085237D02*
X126594794Y-84964285D01*
X126594794Y-84964285D02*
X126655270Y-84903809D01*
X126655270Y-84903809D02*
X126776222Y-84843332D01*
X126776222Y-84843332D02*
X126897175Y-84843332D01*
X126897175Y-84843332D02*
X127078603Y-84903809D01*
X127078603Y-84903809D02*
X127804318Y-85629523D01*
X127804318Y-85629523D02*
X127804318Y-84843332D01*
X156406666Y-73883842D02*
X156588095Y-73944318D01*
X156588095Y-73944318D02*
X156890476Y-73944318D01*
X156890476Y-73944318D02*
X157011428Y-73883842D01*
X157011428Y-73883842D02*
X157071904Y-73823365D01*
X157071904Y-73823365D02*
X157132381Y-73702413D01*
X157132381Y-73702413D02*
X157132381Y-73581461D01*
X157132381Y-73581461D02*
X157071904Y-73460508D01*
X157071904Y-73460508D02*
X157011428Y-73400032D01*
X157011428Y-73400032D02*
X156890476Y-73339556D01*
X156890476Y-73339556D02*
X156648571Y-73279080D01*
X156648571Y-73279080D02*
X156527619Y-73218603D01*
X156527619Y-73218603D02*
X156467142Y-73158127D01*
X156467142Y-73158127D02*
X156406666Y-73037175D01*
X156406666Y-73037175D02*
X156406666Y-72916222D01*
X156406666Y-72916222D02*
X156467142Y-72795270D01*
X156467142Y-72795270D02*
X156527619Y-72734794D01*
X156527619Y-72734794D02*
X156648571Y-72674318D01*
X156648571Y-72674318D02*
X156950952Y-72674318D01*
X156950952Y-72674318D02*
X157132381Y-72734794D01*
X157555714Y-72674318D02*
X157858095Y-73944318D01*
X157858095Y-73944318D02*
X158100000Y-73037175D01*
X158100000Y-73037175D02*
X158341905Y-73944318D01*
X158341905Y-73944318D02*
X158644286Y-72674318D01*
X159793334Y-73944318D02*
X159067619Y-73944318D01*
X159430476Y-73944318D02*
X159430476Y-72674318D01*
X159430476Y-72674318D02*
X159309524Y-72855746D01*
X159309524Y-72855746D02*
X159188572Y-72976699D01*
X159188572Y-72976699D02*
X159067619Y-73037175D01*
X126494318Y-72573332D02*
X127401461Y-72573332D01*
X127401461Y-72573332D02*
X127582889Y-72633809D01*
X127582889Y-72633809D02*
X127703842Y-72754761D01*
X127703842Y-72754761D02*
X127764318Y-72936190D01*
X127764318Y-72936190D02*
X127764318Y-73057142D01*
X127764318Y-71303332D02*
X127764318Y-72029047D01*
X127764318Y-71666190D02*
X126494318Y-71666190D01*
X126494318Y-71666190D02*
X126675746Y-71787142D01*
X126675746Y-71787142D02*
X126796699Y-71908094D01*
X126796699Y-71908094D02*
X126857175Y-72029047D01*
D11*
X136773333Y-78224819D02*
X136440000Y-77748628D01*
X136201905Y-78224819D02*
X136201905Y-77224819D01*
X136201905Y-77224819D02*
X136582857Y-77224819D01*
X136582857Y-77224819D02*
X136678095Y-77272438D01*
X136678095Y-77272438D02*
X136725714Y-77320057D01*
X136725714Y-77320057D02*
X136773333Y-77415295D01*
X136773333Y-77415295D02*
X136773333Y-77558152D01*
X136773333Y-77558152D02*
X136725714Y-77653390D01*
X136725714Y-77653390D02*
X136678095Y-77701009D01*
X136678095Y-77701009D02*
X136582857Y-77748628D01*
X136582857Y-77748628D02*
X136201905Y-77748628D01*
X137678095Y-77224819D02*
X137201905Y-77224819D01*
X137201905Y-77224819D02*
X137154286Y-77701009D01*
X137154286Y-77701009D02*
X137201905Y-77653390D01*
X137201905Y-77653390D02*
X137297143Y-77605771D01*
X137297143Y-77605771D02*
X137535238Y-77605771D01*
X137535238Y-77605771D02*
X137630476Y-77653390D01*
X137630476Y-77653390D02*
X137678095Y-77701009D01*
X137678095Y-77701009D02*
X137725714Y-77796247D01*
X137725714Y-77796247D02*
X137725714Y-78034342D01*
X137725714Y-78034342D02*
X137678095Y-78129580D01*
X137678095Y-78129580D02*
X137630476Y-78177200D01*
X137630476Y-78177200D02*
X137535238Y-78224819D01*
X137535238Y-78224819D02*
X137297143Y-78224819D01*
X137297143Y-78224819D02*
X137201905Y-78177200D01*
X137201905Y-78177200D02*
X137154286Y-78129580D01*
D13*
X137005000Y-84832936D02*
X137005000Y-85287064D01*
X138475000Y-84832936D02*
X138475000Y-85287064D01*
X144870000Y-82447500D02*
X144870000Y-81797500D01*
X144870000Y-82447500D02*
X144870000Y-83097500D01*
X147990000Y-82447500D02*
X147990000Y-81797500D01*
X147990000Y-82447500D02*
X147990000Y-83097500D01*
X144920000Y-83610000D02*
X144590000Y-83850000D01*
X144590000Y-83370000D01*
X144920000Y-83610000D01*
G36*
X144920000Y-83610000D02*
G01*
X144590000Y-83850000D01*
X144590000Y-83370000D01*
X144920000Y-83610000D01*
G37*
X147964564Y-75435000D02*
X147510436Y-75435000D01*
X147964564Y-76905000D02*
X147510436Y-76905000D01*
X136265000Y-70522936D02*
X136265000Y-70977064D01*
X137735000Y-70522936D02*
X137735000Y-70977064D01*
X140412936Y-72315000D02*
X140867064Y-72315000D01*
X140412936Y-73785000D02*
X140867064Y-73785000D01*
X141312500Y-78010000D02*
X140662500Y-78010000D01*
X141312500Y-78010000D02*
X141962500Y-78010000D01*
X141312500Y-81130000D02*
X140662500Y-81130000D01*
X141312500Y-81130000D02*
X141962500Y-81130000D01*
X142715000Y-81410000D02*
X142235000Y-81410000D01*
X142475000Y-81080000D01*
X142715000Y-81410000D01*
G36*
X142715000Y-81410000D02*
G01*
X142235000Y-81410000D01*
X142475000Y-81080000D01*
X142715000Y-81410000D01*
G37*
D10*
X125755000Y-80610000D02*
X133905000Y-80610000D01*
X125755000Y-90770000D02*
X125755000Y-80610000D01*
X133905000Y-80610000D02*
X133905000Y-90770000D01*
X133905000Y-90770000D02*
X125755000Y-90770000D01*
D14*
X129880000Y-91580000D02*
G75*
G02*
X129780000Y-91580000I-50000J0D01*
G01*
X129780000Y-91580000D02*
G75*
G02*
X129880000Y-91580000I50000J0D01*
G01*
D10*
X151825000Y-74310000D02*
X159975000Y-74310000D01*
X151825000Y-84470000D02*
X151825000Y-74310000D01*
X159975000Y-74310000D02*
X159975000Y-84470000D01*
X159975000Y-84470000D02*
X151825000Y-84470000D01*
D14*
X155950000Y-73500000D02*
G75*
G02*
X155850000Y-73500000I-50000J0D01*
G01*
X155850000Y-73500000D02*
G75*
G02*
X155950000Y-73500000I50000J0D01*
G01*
D10*
X125755000Y-67300000D02*
X133905000Y-67300000D01*
X125755000Y-77460000D02*
X125755000Y-67300000D01*
X133905000Y-67300000D02*
X133905000Y-77460000D01*
X133905000Y-77460000D02*
X125755000Y-77460000D01*
D14*
X129880000Y-66490000D02*
G75*
G02*
X129780000Y-66490000I-50000J0D01*
G01*
X129780000Y-66490000D02*
G75*
G02*
X129880000Y-66490000I50000J0D01*
G01*
D13*
X136245000Y-74992936D02*
X136245000Y-75447064D01*
X137715000Y-74992936D02*
X137715000Y-75447064D01*
%LPC*%
D15*
X137740000Y-84147500D03*
X137740000Y-85972500D03*
D16*
X145480000Y-83385000D03*
X147380000Y-83385000D03*
X146430000Y-81510000D03*
D17*
X148650000Y-76170000D03*
X146825000Y-76170000D03*
D15*
X137000000Y-69837500D03*
X137000000Y-71662500D03*
D18*
X139727500Y-73050000D03*
X141552500Y-73050000D03*
D19*
X142250000Y-80520000D03*
X142250000Y-78620000D03*
X140375000Y-79570000D03*
D20*
X129830000Y-88230000D03*
D21*
X129830000Y-83150000D03*
D20*
X155900000Y-76850000D03*
D21*
X155900000Y-81930000D03*
D20*
X129830000Y-69840000D03*
D21*
X129830000Y-74920000D03*
D15*
X136980000Y-74307500D03*
X136980000Y-76132500D03*
%LPD*%
M02*
